HIERARCHY
ROOT RootJoint
{
    OFFSET   0.000000   0.000000   0.000000
    CHANNELS 6 Xposition Yposition Zposition Xrotation Yrotation Zrotation
    JOINT pelvis_lowerback
    {
        OFFSET   0.000000   0.093605   0.000000
        CHANNELS 3 Xrotation Yrotation Zrotation
        JOINT lowerback_torso
        {
            OFFSET   0.000000   0.100000   0.000000
            CHANNELS 3 Xrotation Yrotation Zrotation
            JOINT torso_head
            {
                OFFSET   0.000000   0.282350   0.000000
                CHANNELS 3 Xrotation Yrotation Zrotation
                End Site
                {
                    OFFSET   0.000000   0.192650   0.000000
                }
            }
            JOINT rTorso_Clavicle
            {
                OFFSET  -0.001000   0.157500   0.000000
                CHANNELS 3 Xrotation Yrotation Zrotation
                JOINT rShoulder
                {
                    OFFSET  -0.117647   0.000000   0.000000
                    CHANNELS 3 Xrotation Yrotation Zrotation
                    JOINT rElbow
                    {
                        OFFSET  -0.245000   0.000000   0.000000
                        CHANNELS 3 Xrotation Yrotation Zrotation
                        JOINT rWrist
                        {
                            OFFSET  -0.240000   0.000000   0.000000
                            CHANNELS 3 Xrotation Yrotation Zrotation
                            End Site
                            {
                                OFFSET  -0.116353  -0.002500   0.000000
                            }
                        }
                    }
                }
            }
            JOINT lTorso_Clavicle
            {
                OFFSET   0.001000   0.157500   0.000000
                CHANNELS 3 Xrotation Yrotation Zrotation
                JOINT lShoulder
                {
                    OFFSET   0.117647   0.000000   0.000000
                    CHANNELS 3 Xrotation Yrotation Zrotation
                    JOINT lElbow
                    {
                        OFFSET   0.245000   0.000000   0.000000
                        CHANNELS 3 Xrotation Yrotation Zrotation
                        JOINT lWrist
                        {
                            OFFSET   0.240000   0.000000   0.000000
                            CHANNELS 3 Xrotation Yrotation Zrotation
                            End Site
                            {
                                OFFSET   0.116353  -0.002500   0.000000
                            }
                        }
                    }
                }
            }
        }
    }
    JOINT rHip
    {
        OFFSET  -0.100000  -0.051395   0.000000
        CHANNELS 3 Xrotation Yrotation Zrotation
        JOINT rKnee
        {
            OFFSET   0.000000  -0.410000   0.000000
            CHANNELS 3 Xrotation Yrotation Zrotation
            JOINT rAnkle
            {
                OFFSET   0.000000  -0.390000   0.000000
                CHANNELS 3 Xrotation Yrotation Zrotation
                JOINT rToeJoint
                {
                    OFFSET   0.000000  -0.050000   0.130000
                    CHANNELS 3 Xrotation Yrotation Zrotation
                    End Site
                    {
                        OFFSET  -0.010000   0.002000   0.060000
                    }
                }
            }
        }
    }
    JOINT lHip
    {
        OFFSET   0.100000  -0.051395   0.000000
        CHANNELS 3 Xrotation Yrotation Zrotation
        JOINT lKnee
        {
            OFFSET   0.000000  -0.410000   0.000000
            CHANNELS 3 Xrotation Yrotation Zrotation
            JOINT lAnkle
            {
                OFFSET   0.000000  -0.390000   0.000000
                CHANNELS 3 Xrotation Yrotation Zrotation
                JOINT lToeJoint
                {
                    OFFSET   0.000000  -0.050000   0.130000
                    CHANNELS 3 Xrotation Yrotation Zrotation
                    End Site
                    {
                        OFFSET   0.010000   0.002000   0.060000
                    }
                }
            }
        }
    }
}
MOTION
Frames: 17
Frame Time:   0.008333
 -2.579523   0.886861   4.047581 -12.895752  -1.543278  -4.971887  12.997099  -3.872293  -1.952105   1.468940  -6.738419   2.888747   3.045670  -3.619329   3.641841  -5.065073  -7.878827  -4.754358 -23.203927 -14.924194  33.164419   0.096284  86.177832  -0.098531  -5.748578   5.340539  -3.216425  -0.091509  -5.917626   1.803016  -8.616852 -22.117968 -40.245524 -179.999961 -79.405591 -179.994237  -3.862895  -6.584422  -2.280567   1.026748 -19.702451  -7.466863  35.105662   0.000304  -0.007989  -9.071410 -10.454774   9.050675 -20.100212  -0.016042  -0.026966  -6.892708   9.725295   8.683257  37.357242  -0.000594   0.000814 -18.351802  -0.438139  -1.586118  -0.597641   0.000001  -0.000384
 -2.580567   0.886057   4.045859 -12.698851  -1.667535  -4.695717  13.024118  -3.724097  -1.881245   1.460088  -6.731695   2.956193   3.034584  -3.653673   3.519823  -5.109854  -7.595108  -4.626684 -24.101933 -15.072278  32.562086   0.098383  85.220985  -0.101474  -5.815775   5.382973  -3.255583  -0.149458  -5.802940   1.932996  -8.964370 -22.167309 -40.201616 179.997109 -78.960869 -179.996204  -3.754615  -6.549257  -2.301945   0.746926 -19.646964  -7.600321  35.069967   0.000294  -0.006406 -10.212408 -10.658508   8.563410 -18.287481  -0.011721  -0.020573  -7.488540   9.720254   8.691890  37.942827  -0.001501   0.000943 -18.680637  -0.258206  -1.736926  -0.422825  -0.000093  -0.000060
 -2.581504   0.885424   4.044067 -12.539431  -1.811357  -4.382012  13.090360  -3.583095  -1.864884   1.462160  -6.715727   2.986798   3.031732  -3.692543   3.387983  -5.173110  -7.286450  -4.527528 -24.970608 -15.186640  31.981415   0.092822  84.293929  -0.096248  -5.888584   5.253973  -3.388664  -0.241963  -5.709888   2.098437  -9.318283 -22.227188 -40.137319 179.994785 -78.524102 -179.997730  -3.650893  -6.631029  -2.300989   0.431939 -19.585090  -7.806078  35.086800   0.000211  -0.005122 -11.202475 -10.843458   8.089925 -16.619764  -0.007809  -0.016266  -8.086018   9.682462   8.788400  38.527293  -0.002855   0.001202 -18.989323  -0.087004  -1.875444  -0.287796  -0.000309   0.000113
 -2.582306   0.884951   4.042308 -12.400913  -1.960236  -4.028118  13.163911  -3.450735  -1.887421   1.467496  -6.698538   2.981939   3.033160  -3.729260   3.258040  -5.239944  -6.984206  -4.453877 -25.793126 -15.274992  31.430237   0.084460  83.429113  -0.087917  -5.960043   5.103729  -3.537037  -0.344491  -5.632572   2.267064  -9.662193 -22.290093 -40.071021 179.993233 -78.110195 -179.998825  -3.552222  -6.761638  -2.281631   0.118112 -19.511639  -8.068255  35.093296   0.000160  -0.004097 -12.099980 -11.018473   7.632907 -15.089001  -0.004563  -0.013145  -8.675411   9.623303   8.951472  39.068987  -0.004283   0.001582 -19.277151   0.074438  -2.003111  -0.165820  -0.000583   0.000228
 -2.582949   0.884616   4.040610 -12.276630  -2.109916  -3.637571  13.236965  -3.327761  -1.937391   1.471446  -6.683017   2.948732   3.035538  -3.763552   3.132749  -5.307620  -6.695580  -4.401424 -26.569294 -15.343250  30.907375   0.075658  82.625358  -0.079008  -6.028197   4.971707  -3.686261  -0.446767  -5.566391   2.428387  -9.989353 -22.353099 -40.008591 179.992224 -77.721210 -179.999674  -3.458057  -6.909118  -2.253015  -0.189246 -19.426582  -8.380826  35.079324   0.000144  -0.003279 -12.925143 -11.186662   7.192837 -13.685147  -0.001942  -0.010831  -9.254664   9.547023   9.168211  39.565184  -0.005609   0.002017 -19.545739   0.226581  -2.120880  -0.054932  -0.000867   0.000306
 -2.583414   0.884398   4.038982 -12.164155  -2.258365  -3.215509  13.307350  -3.214345  -2.005789   1.473312  -6.670039   2.894499   3.037716  -3.795569   3.013152  -5.375039  -6.422611  -4.366427 -27.300702 -15.395410  30.411758   0.067196  81.878401  -0.070402  -6.092802   4.862692  -3.836022  -0.544736  -5.508750   2.579336 -10.297541 -22.414889 -39.951577 179.991559 -77.356825 179.999600  -3.368029  -7.060687  -2.221649  -0.489054 -19.330625  -8.739039  35.045500   0.000148  -0.002627 -13.687858 -11.349429   6.769618 -12.398010   0.000139  -0.009095  -9.821185   9.456243   9.429041  40.018992  -0.006750   0.002453 -19.796431   0.369845  -2.229581   0.045960  -0.001133   0.000355
 -2.583685   0.884276   4.037429 -12.062139  -2.404092  -2.767208  13.374344  -3.110366  -2.085421   1.473454  -6.659868   2.825775   3.039427  -3.825467   2.899712  -5.441398  -6.165783  -4.345541 -27.989110 -15.434488  29.942570   0.059325  81.183909  -0.062403  -6.154018   4.774181  -3.986727  -0.636964  -5.458044   2.719463 -10.586510 -22.474819 -39.900062 179.991104 -77.015975 179.998941  -3.281869  -7.211062  -2.190967  -0.781061 -19.224659  -9.138300  34.994356   0.000160  -0.002106 -14.394593 -11.507602   6.362938 -11.217996   0.001770  -0.007775 -10.372720   9.353050   9.725914  40.434161  -0.007670   0.002853 -20.030444   0.504642  -2.329961   0.137803  -0.001362   0.000385
 -2.584151   0.883808   4.035734 -12.010403  -2.674380  -2.478358  13.459838  -3.003945  -2.146650   1.545991  -6.557193   2.820712   3.099477  -3.916842   2.815149  -5.472075  -5.782571  -4.343464 -28.775422 -15.395456  29.369327   0.054048  80.261624  -0.056217  -6.155593   4.751165  -4.151474  -0.790613  -5.479622   2.959163 -11.006796 -22.687406 -39.819414 179.989021 -76.640539 179.997227  -3.140993  -7.205542  -2.022625  -1.193059 -19.105494  -9.460561  35.245283  -0.000224  -0.001951 -14.947998 -11.518960   6.023052 -10.082879   0.002647  -0.007169 -10.828483   9.171831  10.348403  40.785174  -0.008780   0.002938 -20.081041   0.830394  -2.429181   0.131978  -0.001049   0.000298
 -2.584656   0.883154   4.034077 -11.970382  -2.973927  -2.221114  13.546145  -2.923409  -2.222731   1.616292  -6.466934   2.812402   3.166281  -4.004250   2.733195  -5.510758  -5.381084  -4.362777 -29.524041 -15.325063  28.830454   0.050189  79.389780  -0.051356  -6.157903   4.661747  -4.302732  -0.979983  -5.547131   3.215136 -11.443501 -22.920212 -39.735155 179.987299 -76.273269 179.995748  -3.003936  -7.281211  -1.832608  -1.634770 -18.994224  -9.775201  35.580934  -0.000706  -0.002048 -15.502227 -11.503324   5.723631  -9.035049   0.002960  -0.006975 -11.214166   8.946067  11.102492  41.091823  -0.009672   0.002975 -20.124466   1.138899  -2.518645   0.147104  -0.000960   0.000260
 -2.585092   0.882415   4.032497 -11.926312  -3.279935  -1.962970  13.621849  -2.870866  -2.312734   1.672452  -6.401845   2.787915   3.228954  -4.086605   2.653377  -5.551457  -4.991799  -4.390020 -30.228373 -15.241486  28.327778   0.047336  78.579719  -0.047573  -6.159370   4.584785  -4.440313  -1.175680  -5.640234   3.458981 -11.872482 -23.156657 -39.659757 179.986143 -75.923993 179.994555  -2.872474  -7.407433  -1.638554  -2.086801 -18.883068 -10.101018  35.934039  -0.001114  -0.002194 -16.068428 -11.483242   5.451059  -8.073142   0.002980  -0.006866 -11.547422   8.700746  11.917016  41.367781  -0.010289   0.003009 -20.163983   1.428367  -2.600593   0.165878  -0.000931   0.000232
 -2.585394   0.881654   4.030994 -11.874001  -3.584755  -1.695516  13.686590  -2.843482  -2.410958   1.715947  -6.361469   2.749020   3.285375  -4.164124   2.576299  -5.591929  -4.625145  -4.421469 -30.888843 -15.153758  27.857380   0.044901  77.826718  -0.044322  -6.159602   4.529678  -4.574878  -1.365681  -5.747946   3.682901 -12.284028 -23.390317 -39.596487 179.985431 -75.594856 179.993557  -2.746455  -7.557470  -1.451172  -2.542664 -18.768414 -10.443575  36.279404  -0.001400  -0.002311 -16.634059 -11.464625   5.198811  -7.191220   0.002875  -0.006739 -11.837003   8.448098  12.756660  41.621260  -0.010659   0.003036 -20.200252   1.699627  -2.676031   0.185415  -0.000923   0.000208
 -2.585521   0.880907   4.029555 -11.812528  -3.885321  -1.417469  13.742778  -2.837553  -2.512167   1.750555  -6.342726   2.700327   3.335904  -4.236999   2.502601  -5.631129  -4.284642  -4.455727 -31.507233 -15.066324  27.416012   0.042500  77.125781  -0.041233  -6.158957   4.490857  -4.712394  -1.545433  -5.863468   3.886535 -12.674369 -23.617678 -39.544699 179.985026 -75.285956 179.992692  -2.625637  -7.717324  -1.275656  -2.999532 -18.648845 -10.803701  36.605591  -0.001563  -0.002376 -17.186848 -11.449477   4.962924  -6.382859   0.002732  -0.006567 -12.088975   8.194889  13.600393  41.857093  -0.010821   0.003047 -20.233706   1.953620  -2.745671   0.204455  -0.000917   0.000188
 -2.585449   0.880194   4.028168 -11.741977  -4.180187  -1.129995  13.793091  -2.849453  -2.612223   1.779680  -6.342118   2.646327   3.381462  -4.305436   2.432700  -5.668497  -3.970850  -4.491860 -32.085645 -14.981467  27.001281   0.039960  76.472611  -0.038136  -6.157804   4.462494  -4.854746  -1.713609  -5.982384   4.071826 -13.042449 -23.836688 -39.502617 179.984836 -74.996660 179.991938  -2.509768  -7.879753  -1.113452  -3.455678 -18.523900 -11.180168  36.906670  -0.001620  -0.002389 -17.718332 -11.438534   4.740769  -5.641959   0.002594  -0.006354 -12.308364   7.945324  14.434558  42.078261  -0.010810   0.003035 -20.264688   2.191307  -2.810078   0.222298  -0.000902   0.000169
 -2.585500   0.879100   4.026642 -11.668651  -4.524125  -0.981785  13.842820  -2.861737  -2.652750   1.820893  -6.238975   2.645481   3.502375  -4.400797   2.358757  -5.670954  -3.593879  -4.534414 -32.657529 -14.874309  26.531281   0.035626  75.893345  -0.033234  -6.085123   4.363303  -5.125852  -1.878897  -6.258938   4.294219 -13.715306 -24.138242 -39.600686 179.986339 -74.809293 179.992629  -2.346606  -7.922768  -0.945947  -3.950483 -18.381749 -11.407714  37.329475  -0.001977  -0.002667 -18.306334 -11.381106   4.345903  -5.018596   0.003155  -0.005881 -12.374783   7.762483  15.437229  41.789460  -0.005761   0.001574 -19.851587   2.377767  -2.989793   0.156369  -0.000141   0.000078
 -2.585521   0.877722   4.025043 -11.581400  -4.840327  -0.885918  13.900126  -2.904608  -2.664262   1.855436  -6.164296   2.660785   3.620357  -4.488673   2.289204  -5.680844  -3.196937  -4.586502 -33.199729 -14.739609  26.101817   0.031516  75.362127  -0.028732  -6.009515   4.306417  -5.363832  -2.079088  -6.594257   4.511491 -14.402802 -24.462955 -39.708083 179.987509 -74.629833 179.993071  -2.186870  -7.982695  -0.716299  -4.459993 -18.257223 -11.584541  37.794770  -0.002316  -0.002936 -18.940297 -11.315621   3.991695  -4.450016   0.003301  -0.005400 -12.411083   7.568380  16.465283  41.412683  -0.000901   0.000191 -19.462430   2.551981  -3.157810   0.138447   0.000044   0.000048
 -2.585449   0.876177   4.023423 -11.487393  -5.135250  -0.816475  13.965015  -2.969026  -2.661728   1.888729  -6.116962   2.682088   3.730187  -4.571132   2.224212  -5.693316  -2.804284  -4.636784 -33.708257 -14.595753  25.709356   0.027785  74.872226  -0.024730  -5.934145   4.288413  -5.570648  -2.283464  -6.950338   4.713307 -15.071921 -24.790054 -39.821273 179.988436 -74.457771 179.993305  -2.032974  -8.077117  -0.481096  -4.968255 -18.139887 -11.737185  38.269926  -0.002557  -0.003129 -19.600724 -11.245783   3.671954  -3.928810   0.003220  -0.004911 -12.425625   7.376877  17.472211  41.032676   0.002889  -0.000837 -19.099274   2.714708  -3.315114   0.125884   0.000140   0.000029
 -2.585253   0.874546   4.021801 -11.389103  -5.415148  -0.764866  14.036126  -3.047564  -2.649711   1.925087  -6.089979   2.706806   3.832208  -4.648599   2.163430  -5.705470  -2.428470  -4.681269 -34.182357 -14.453079  25.349107   0.024423  74.417826  -0.021179  -5.860199   4.292229  -5.756941  -2.479299  -7.308108   4.896381 -15.710039 -25.109285 -39.938963 179.989219 -74.294564 179.993418  -1.885273  -8.192487  -0.261115  -5.469659 -18.026939 -11.874646  38.737710  -0.002693  -0.003247 -20.264874 -11.175197   3.380316  -3.451256   0.003030  -0.004451 -12.420299   7.195186  18.437498  40.671695   0.005581  -0.001504 -18.760142   2.866460  -3.462619   0.115219   0.000198   0.000017
